PathFileType	4	(X/Y/Z)	D:\Share\Shared_Data\Ergonomics\Sit To Stand Pertubation\S1\Perturbed_NoHarness.trc
DataRate	CameraRate	NumFrames	NumMarkers	Units	OrigDataRate	OrigDataStartFrame	OrigNumFrames	
100	100	8	18	m	100	2569	171
Frame#	Time	L_ASIS			R_ASIS			R_Pelvis			V_Sacral			L_Pelvis			Clavical			R_Acromium			L_Acromium			Sternum			Torso			R_Thigh_Med			R_Thigh_Lat			R_Thigh			R_Shank_Med			R_Shank_Lat			R_Shank			R_Heel			R_Toe			
		X1	Y1	Z1	X2	Y2	Z2	X3	Y3	Z3	X4	Y4	Z4	X5	Y5	Z5	X6	Y6	Z6	X7	Y7	Z7	X8	Y8	Z8	X9	Y9	Z9	X10	Y10	Z10	X11	Y11	Z11	X12	Y12	Z12	X13	Y13	Z13	X14	Y14	Z14	X15	Y15	Z15	X16	Y16	Z16	X17	Y17	Z17	X18	Y18	Z18	

2569	25.68	0.40258871	0.90780566	-0.11062097	0.29600311	0.90879584	0.12395759	0.37838687	0.90005804	0.087339516	0.20950671	0.89461133	-0.028028032	0.31723483	0.90776306	-0.17348476	0.38711511	1.251071	-0.013098311	0.32131372	1.3221084	0.13516721	0.28306146	1.2807454	-0.21586899	0.37076047	1.2634941	0.089386551	0.38436612	1.2570558	-0.072869751	0.3313439	0.4169855	0.043064552	0.35433301	0.44324634	0.15841608	0.40928555	0.61538519	0.097794823	0.32798904	0.098533722	0.096953796	0.30690787	0.10037725	0.17737096	0.32418387	0.31191397	0.18572226	0.25979947	0.031995777	0.12189289	0.46426251	0.049031757	0.14222543
2570	25.69	0.40499271	0.90843646	-0.11083308	0.29866663	0.90912891	0.12375124	0.38190488	0.90038611	0.086490456	0.21213777	0.8953139	-0.028160576	0.31969308	0.90820966	-0.17350211	0.38743954	1.2518679	-0.013364782	0.32136172	1.3224581	0.13503754	0.28258096	1.2809678	-0.21649663	0.37113663	1.2641392	0.089162384	0.38455573	1.257729	-0.073180618	0.32952283	0.41716049	0.044443157	0.35211816	0.44343658	0.15945126	0.4093999	0.61486176	0.098476357	0.32787247	0.098703316	0.097123039	0.30673572	0.10028349	0.17750011	0.32259726	0.31196121	0.1863457	0.25984924	0.03200856	0.12182583	0.46438437	0.0486982	0.14227458
2571	25.7	0.40730408	0.90895233	-0.11103985	0.30117023	0.90936914	0.12361331	0.38483868	0.90065375	0.086038673	0.21466415	0.89587421	-0.028249029	0.32205389	0.90853955	-0.17349033	0.38777313	1.252517	-0.013621408	0.32143442	1.3226755	0.1349131	0.28215244	1.2810248	-0.21705533	0.37152026	1.2646421	0.088945793	0.38475864	1.2582539	-0.073480186	0.32783231	0.41730746	0.045752136	0.35007321	0.44359213	0.16046574	0.40956403	0.61432294	0.099138809	0.3277619	0.098865273	0.097288086	0.30657309	0.10019193	0.17762634	0.32111816	0.31198901	0.18695639	0.2598938	0.032028381	0.12177313	0.46449673	0.048400753	0.14231404
2572	25.71	0.40952591	0.9093656	-0.11122595	0.30351151	0.90953284	0.12354011	0.38719745	0.90084308	0.085974457	0.21709	0.89630634	-0.028293446	0.32431757	0.9087688	-0.17345503	0.38811282	1.2530343	-0.013867205	0.32152969	1.3227784	0.13479391	0.28177948	1.2809362	-0.21754028	0.37190878	1.2650197	0.08873764	0.38497241	1.2586482	-0.073767189	0.32627713	0.41743335	0.046981518	0.34820032	0.44371799	0.16145871	0.40978177	0.61377588	0.099786407	0.32765826	0.099020866	0.097450676	0.3064173	0.10010482	0.17775131	0.31974591	0.31200082	0.18755592	0.25993259	0.032054096	0.12173375	0.46459906	0.04814043	0.14234683
2573	25.72	0.41166263	0.90968701	-0.11137226	0.30569278	0.90963422	0.12352599	0.38899326	0.90093408	0.08628772	0.21942029	0.89662555	-0.028294617	0.32648587	0.90891327	-0.17340079	0.38845538	1.2534358	-0.014101147	0.32164514	1.322785	0.13468004	0.28146368	1.2807231	-0.21795045	0.37229984	1.2652897	0.088538841	0.38519449	1.2589292	-0.07404026	0.32486041	0.41754443	0.048124496	0.34649936	0.44381921	0.16242758	0.41005548	0.61322723	0.10042203	0.32756259	0.099170975	0.097610924	0.30626651	0.10002413	0.1778754	0.3184791	0.31200034	0.18814384	0.25996542	0.032084576	0.12170586	0.46469168	0.047916176	0.14237527
2574	25.73	0.41372012	0.90992578	-0.11145705	0.30772049	0.90968597	0.12356416	0.39023853	0.90090717	0.086969643	0.22166078	0.89684772	-0.028254025	0.32856192	0.90898779	-0.17333139	0.38879776	1.2537378	-0.014322159	0.32177802	1.3227135	0.13457147	0.28120486	1.2804087	-0.21828821	0.37269122	1.2654696	0.088350388	0.38542194	1.2591152	-0.074298019	0.32358371	0.41764609	0.049177258	0.34496844	0.44390067	0.16336812	0.41038614	0.61268286	0.10104676	0.32747604	0.099315979	0.097767555	0.30612027	0.099951576	0.17799762	0.31731619	0.31199103	0.1887178	0.25999283	0.032118774	0.12168719	0.46477548	0.047725136	0.14240091
2575	25.74	0.41570511	0.91008929	-0.11145828	0.309604	0.90969879	0.12364732	0.39094574	0.90074487	0.088012413	0.22381752	0.89698865	-0.028173794	0.3305499	0.90900629	-0.17324971	0.38913672	1.2539559	-0.014529129	0.32192526	1.3225811	0.13446851	0.28100089	1.2800161	-0.21855859	0.37308066	1.2655767	0.088173317	0.38565201	1.2592234	-0.07453904	0.32244714	0.41774268	0.05013858	0.34360464	0.44396661	0.1642747	0.41077344	0.61214832	0.10165976	0.32739957	0.099455803	0.097918213	0.305979	0.099888412	0.17811607	0.3162561	0.31197632	0.18927383	0.26001562	0.032155766	0.12167511	0.46485187	0.047563148	0.14242448
2576	25.75	0.41762509	0.91018445	-0.11135613	0.31135547	0.90968213	0.1237681	0.39112946	0.90043414	0.089407425	0.22589667	0.89706409	-0.028056654	0.33245486	0.90898083	-0.17315779	0.38946951	1.2541055	-0.014720927	0.32208331	1.3224037	0.13437157	0.28084814	1.2795665	-0.21876828	0.37346613	1.2656276	0.088008698	0.38588205	1.2592701	-0.074762016	0.3214498	0.41783737	0.051009369	0.3424046	0.44402087	0.16514087	0.41121594	0.61162793	0.1022584	0.32733374	0.099589973	0.098059883	0.30584402	0.099835533	0.17822836	0.3152981	0.31195905	0.18980698	0.26003491	0.032194725	0.12166707	0.46492264	0.047425289	0.14244617
